inDegrees=yes
name=ik_S41_A11_T02
DataType=double
version=3
OpenSimVersion=4.3-2021-08-27-4bc7ad9
endheader
time	pelvis_tilt	pelvis_list	pelvis_rotation	pelvis_tx	pelvis_ty	pelvis_tz	hip_flexion_r	hip_adduction_r	hip_rotation_r	knee_angle_r	knee_angle_r_beta	ankle_angle_r	subtalar_angle_r	mtp_angle_r	hip_flexion_l	hip_adduction_l	hip_rotation_l	knee_angle_l	knee_angle_l_beta	ankle_angle_l	subtalar_angle_l	mtp_angle_l	lumbar_extension	lumbar_bending	lumbar_rotation	arm_flex_r	arm_add_r	arm_rot_r	elbow_flex_r	pro_sup_r	wrist_flex_r	wrist_dev_r	arm_flex_l	arm_add_l	arm_rot_l	elbow_flex_l	pro_sup_l	wrist_flex_l	wrist_dev_l
0	0	0	0	0	0.9399999999999999	0	0	0	0	0	0	0	0	0	0	0	0	0	0	0	0	0	0	0	0	0	0	0	0	89.99999999963507	0	0	0	0	0	0	89.99999999869995	0	0
0.02	0.3296321639162922	-1.032937918465983	16.20458615503754	0	0.9399999999999999	0	2.011534573302377	-0.947227787482795	-0.6776849622804192	3.171087815267266	0.0553459232462875	0	0	0	2.011534573302377	-0.947227787482795	-0.6776849622804192	3.171087815267266	0.0553459232462875	0	0	0	0.4435648807758562	-1.367058065097472	5.927080665754989	6.87573205706118	-4.974822643911875	-3.526588090614494	-1.791127409964628	130.3371951072829	0	0	9.453025476967872	-1.994687693849969	-4.87248960202269	7.555008464084557	123.566244138086	0	0
0.04	0.3263262610681564	-1.036628721095612	16.31486782665401	0	0.9399999999999999	0	3.475176109971573	-1.630999998681717	-1.200310392978289	4.675591026969018	0.08160445789731235	0	0	0	3.475176109971573	-1.630999998681717	-1.200310392978289	4.675591026969018	0.08160445789731235	0	0	0	0.4340913053078775	-1.367364300563861	5.870432474188082	6.870233905949741	-4.987772927237165	-3.524458925752231	-1.800913512947856	130.2917111590038	0	0	9.459063375860627	-1.998638148569417	-4.894422227169211	7.567390308793049	123.5947229263568	0	0
0.06	0.3279024557365366	-1.036447403596847	16.4497231788816	0	0.9399999999999999	0	5.152115502343785	-2.388925500171147	-1.787188811833263	6.406488169627677	0.1118143120500679	0	0	0	5.152115502343785	-2.388925500171147	-1.787188811833263	6.406488169627677	0.1118143120500679	0	0	0	0.4293871067211105	-1.364236276348775	5.798102749538367	6.856372704993039	-5.013009128695935	-3.581385926445644	-1.797531959359122	130.3047980773944	0	0	9.457153837713653	-2.00080142675928	-4.875069116946062	7.551189420294547	123.59938103989	0	0
0.08	0.3146805046029586	-1.045615710886855	16.54797167476307	0	0.9399999999999999	0	6.191540452916986	-2.831835279830268	-2.144013424071682	7.448157966759469	0.1299948797285991	0	0	0	6.191540452916986	-2.831835279830268	-2.144013424071682	7.448157966759469	0.1299948797285991	0	0	0	0.4093772188380359	-1.366444336893966	5.745688650975418	6.900752819315855	-5.022036121460994	-3.643943147443685	-1.788044434250108	130.3407123282965	0	0	9.488834238473725	-2.007652087065885	-4.856272585739856	7.550327861838492	123.5734497959184	0	0
0.1	0.3157333799190867	-1.045082801326913	16.59185262353628	0	0.9399999999999999	0	6.439936675658527	-2.931189918439479	-2.228214170031029	7.680894362921019	0.134056896130844	0	0	0	6.439936675658527	-2.931189918439479	-2.228214170031029	7.680894362921019	0.134056896130844	0	0	0	0.4092929271046851	-1.365242440188342	5.741768239634215	6.891013074832977	-5.042804720602681	-3.654135537265763	-1.8108869187504	130.2972528819606	0	0	9.479041231622693	-2.008679287549932	-4.820637354028133	7.601806601015607	123.5072649343312	0	0
0.12	0.3179571466425014	-1.039019910774492	16.63612915304715	0	0.9399999999999999	0	6.703347032343084	-3.035960080354887	-2.317163538619781	7.92927175121227	0.1383918993440308	0	0	0	6.703347032343084	-3.035960080354887	-2.317163538619781	7.92927175121227	0.1383918993440308	0	0	0	0.4115436415189167	-1.358802769225956	5.729215107331665	6.883879717801723	-5.029844033844676	-3.635769216249974	-1.830576817390136	130.2945175443874	0	0	9.511632192315608	-1.998022748312969	-4.882555263428194	7.540642916191755	123.5689210919878	0	0
0.14	0.3251120402749756	-1.032638501325662	16.68607047676323	0	0.9399999999999999	0	6.953112823081247	-3.134427484407318	-2.401136544866448	8.165560898505916	0.1425159229510348	0	0	0	6.953112823081247	-3.134427484407318	-2.401136544866448	8.165560898505916	0.1425159229510348	0	0	0	0.4186553305754792	-1.353414124472707	5.721627291356201	6.884066220322177	-5.055769384130532	-3.594676930898145	-1.86926399525834	130.2163442390827	0	0	9.483298694995394	-2.010499854033653	-4.858442036299086	7.621849542157954	123.534871797954	0	0
